<?xml version="1.0" encoding="UTF-8" standalone="no"?>
<svg
   width="30px"
   height="25px"
   viewBox="0 0 30 25"
   version="1.1"
   id="svg22"
   sodipodi:docname="logo.svg"
   inkscape:version="1.1.1 (c3084ef, 2021-09-22)"
   xmlns:inkscape="http://www.inkscape.org/namespaces/inkscape"
   xmlns:sodipodi="http://sodipodi.sourceforge.net/DTD/sodipodi-0.dtd"
   xmlns="http://www.w3.org/2000/svg"
   xmlns:svg="http://www.w3.org/2000/svg">
  <defs
     id="defs26">
    <clipPath
       clipPathUnits="userSpaceOnUse"
       id="clipPath832">
      <path
         d="m 21.881248,-5.6729438 q 0.800781,0 1.269531,-0.4882813 0.488281,-0.4882812 0.488281,-1.328125 v -8.5156249 h 6.503907 q 2.65625,0 4.6875,-1.152343 2.050781,-1.152344 3.203125,-3.203125 1.171875,-2.050782 1.171875,-4.726563 0,-2.675781 -1.152344,-4.707031 -1.152344,-2.03125 -3.183594,-3.183594 -2.03125,-1.152344 -4.6875,-1.152344 h -8.300781 q -0.800781,0 -1.289063,0.488282 -0.46875,0.488281 -0.46875,1.328125 v 24.8242179 q 0,0.8398438 0.46875,1.328125 0.488282,0.4882813 1.289063,0.4882813 z M 23.63906,-19.129975 v -11.875 h 5.625 q 3.027344,0 4.667969,1.5625 1.660156,1.5625 1.660156,4.355469 0,2.8125 -1.660156,4.394531 -1.640625,1.5625 -4.667969,1.5625 z"
         style="font-size:40px;line-height:1.25;font-family:'.SF NS Rounded';-inkscape-font-specification:'.SF NS Rounded';fill:#9155fd;fill-opacity:1;fill-rule:evenodd;stroke:none;stroke-width:1"
         id="path834" />
    </clipPath>
    <clipPath
       clipPathUnits="userSpaceOnUse"
       id="clipPath4672">
      <path
         d="m 19.665151,-5.8439115 q 0.800781,0 1.269531,-0.4882807 0.488281,-0.4882808 0.488281,-1.3281232 v -8.5156166 h 6.503907 q 2.65625,0 4.6875,-1.152342 2.050782,-1.152342 3.203125,-3.203121 1.171875,-2.050779 1.171875,-4.726558 0,-2.675778 -1.152343,-4.707024 -1.152344,-2.031249 -3.183594,-3.183591 -2.03125,-1.152344 -4.6875,-1.152344 h -8.300781 q -0.800782,0 -1.289063,0.488282 -0.46875,0.488279 -0.46875,1.328123 v 24.8241916 q 0,0.8398424 0.46875,1.3281232 0.488282,0.4882807 1.289062,0.4882807 z m 1.757812,-13.4570155 v -11.874988 h 5.625 q 3.027344,0 4.66797,1.562499 1.660156,1.562498 1.660156,4.355464 0,2.812496 -1.660156,4.394526 -1.640625,1.562499 -4.667969,1.562499 z"
         style="font-size:40px;line-height:1.25;font-family:'.SF NS Rounded';-inkscape-font-specification:'.SF NS Rounded';fill:#9155fd;fill-opacity:1;fill-rule:evenodd;stroke:none;stroke-width:0.999999"
         id="path4674" />
    </clipPath>
    <clipPath
       clipPathUnits="userSpaceOnUse"
       id="clipPath9524">
      <rect
         style="opacity:0.65;fill:#00a3ff;fill-opacity:1;stroke:none"
         id="rect9526"
         width="11.168254"
         height="15.65344"
         x="10.140656"
         y="-11.002529" />
    </clipPath>
  </defs>
  <sodipodi:namedview
     id="namedview24"
     pagecolor="#ffffff"
     bordercolor="#666666"
     borderopacity="1.0"
     inkscape:pageshadow="2"
     inkscape:pageopacity="0.0"
     inkscape:pagecheckerboard="0"
     showgrid="false"
     inkscape:zoom="16.714894"
     inkscape:cx="14.089231"
     inkscape:cy="12.414078"
     inkscape:window-width="1440"
     inkscape:window-height="783"
     inkscape:window-x="0"
     inkscape:window-y="25"
     inkscape:window-maximized="0"
     inkscape:current-layer="text7553" />
  <title
     id="title2">logo</title>
  <g
     aria-label="PC"
     id="text1260"
     style="font-size:40px;line-height:1.25"
     transform="translate(-0.9183853)">
    <g
       id="g4457"
       transform="translate(0,-1.6040608)">
      <g
         aria-label="PC"
         id="text7553"
         style="font-size:40px">
        <path
           d="m 5.6900299,22.255678 q 0.4297952,0 0.6737337,-0.278786 0.2555536,-0.278786 0.2555536,-0.74343 v -5.204009 h 3.8333108 q 1.498476,0 2.613621,-0.604037 1.126761,-0.615653 1.75403,-1.707566 0.627268,-1.091912 0.627268,-2.55554 0,-1.4636268 -0.627268,-2.5555397 Q 14.19301,7.5032421 13.066249,6.8992052 11.951104,6.283552 10.452628,6.283552 H 6.6077012 q -0.9873675,0 -1.4171634,0.3833314 Q 4.7723585,7.0502143 4.7723585,7.9562692 V 21.233462 q 0,0.464644 0.2439383,0.74343 0.2439379,0.278786 0.6737331,0.278786 z M 6.6193172,14.356736 V 7.9562692 h 3.7636138 q 1.498476,0 2.323219,0.847976 0.836359,0.836358 0.836359,2.3580648 0,1.765646 -0.998984,2.485844 -0.987368,0.708582 -3.4383642,0.708582 z"
           style="font-family:'.SF Compact Rounded';-inkscape-font-specification:'.SF Compact Rounded';fill:#00a3ff;fill-opacity:1;stroke-width:0.594744"
           id="path9339" />
        <path
           d="m 16.197948,15.518345 q 0,3.310586 1.60302,5.134313 1.614637,1.823726 4.530276,1.823726 1.42878,0 2.55554,-0.429795 1.126761,-0.441412 1.939887,-1.266155 0.580805,-0.604037 0.929288,-1.301002 0.360099,-0.708581 0.360099,-1.219689 0,-0.383331 -0.220706,-0.604037 -0.20909,-0.232322 -0.615654,-0.232322 -0.313633,0 -0.522723,0.174242 -0.197474,0.174241 -0.41818,0.615652 -0.441411,0.882823 -1.033831,1.452011 -0.580806,0.569189 -1.312619,0.847975 -0.720198,0.278787 -1.603021,0.278787 -2.090896,0 -3.217657,-1.359083 -1.126761,-1.370699 -1.126761,-3.914623 V 12.91634 q 0,-2.532308 1.126761,-3.9030068 1.126761,-1.3823146 3.217657,-1.3823146 0.871208,0 1.568173,0.2904028 0.708581,0.2787861 1.289386,0.8595898 0.580804,0.580806 1.045448,1.4868598 0.232322,0.464644 0.453028,0.638885 0.232322,0.162625 0.557572,0.162625 0.371715,0 0.592421,-0.220705 0.220706,-0.232322 0.220706,-0.627269 0,-0.4994918 -0.348483,-1.2080738 Q 27.419092,8.3047522 26.826671,7.7007155 26.001929,6.8411244 24.875168,6.3997131 23.760024,5.9466854 22.331244,5.9466854 q -2.915639,0 -4.530276,1.8353428 -1.60302,1.835342 -1.60302,5.1343118 z"
           style="font-family:'.SF Compact Rounded';-inkscape-font-specification:'.SF Compact Rounded';fill:#00a3ff;fill-opacity:1;stroke-width:0.594744"
           id="path9341" />
      </g>
    </g>
  </g>
</svg>
